<svg xmlns="http://www.w3.org/2000/svg" width="60" height="60" viewBox="0 0 60 60" fill="none">
  <rect width="60" height="60" rx="10" fill="#0284C7"/>
  <path d="M19.8 43V17.8H30.12C32.68 17.8 34.84 18.28 36.6 19.24C38.36 20.2 39.68 21.52 40.56 23.2C41.44 24.88 41.88 26.8 41.88 28.96C41.88 31.12 41.44 33.04 40.56 34.72C39.68 36.4 38.36 37.72 36.6 38.68C34.84 39.64 32.68 40.12 30.12 40.12H24.24V43H19.8ZM24.24 36.16H29.88C31.56 36.16 32.92 35.8 33.96 35.08C35.04 34.36 35.84 33.4 36.36 32.2C36.88 31 37.14 29.69 37.14 28.27C37.14 26.83 36.88 25.52 36.36 24.32C35.84 23.12 35.04 22.16 33.96 21.44C32.92 20.72 31.56 20.36 29.88 20.36H24.24V36.16Z" fill="white"/>
</svg> 